<mxfile host="app.diagrams.net" modified="2023-06-04T22:47:40.951Z" agent="Mozilla/5.0 (Windows NT 10.0; Win64; x64) AppleWebKit/537.36 (KHTML, like Gecko) Chrome/114.0.0.0 Safari/537.36" etag="MR5idrOE__NVM8gxc0Ao" version="21.3.6" type="device">
  <diagram id="C5RBs43oDa-KdzZeNtuy" name="Page-1">
    <mxGraphModel dx="1847" dy="516" grid="1" gridSize="10" guides="1" tooltips="1" connect="1" arrows="1" fold="1" page="1" pageScale="1" pageWidth="827" pageHeight="1169" math="0" shadow="0">
      <root>
        <mxCell id="WIyWlLk6GJQsqaUBKTNV-0" />
        <mxCell id="WIyWlLk6GJQsqaUBKTNV-1" parent="WIyWlLk6GJQsqaUBKTNV-0" />
        <mxCell id="WIyWlLk6GJQsqaUBKTNV-3" value="main" style="rounded=1;whiteSpace=wrap;html=1;fontSize=12;glass=0;strokeWidth=1;shadow=0;" parent="WIyWlLk6GJQsqaUBKTNV-1" vertex="1">
          <mxGeometry x="50" y="10" width="190" height="160" as="geometry" />
        </mxCell>
        <mxCell id="IjpmylR8UJIye0wj_KUh-0" value="validate_http_request()" style="rounded=1;whiteSpace=wrap;html=1;" parent="WIyWlLk6GJQsqaUBKTNV-1" vertex="1">
          <mxGeometry x="390" y="20" width="130" height="60" as="geometry" />
        </mxCell>
        <mxCell id="IjpmylR8UJIye0wj_KUh-2" value="The request of the client" style="endArrow=classic;html=1;rounded=0;entryX=0;entryY=0.5;entryDx=0;entryDy=0;exitX=1.011;exitY=0.323;exitDx=0;exitDy=0;exitPerimeter=0;" parent="WIyWlLk6GJQsqaUBKTNV-1" source="WIyWlLk6GJQsqaUBKTNV-3" target="IjpmylR8UJIye0wj_KUh-0" edge="1">
          <mxGeometry width="50" height="50" relative="1" as="geometry">
            <mxPoint x="250" y="50" as="sourcePoint" />
            <mxPoint x="290" y="20" as="targetPoint" />
          </mxGeometry>
        </mxCell>
        <mxCell id="IjpmylR8UJIye0wj_KUh-3" value="If the clients request is built like a&lt;br&gt;regular HTTP request" style="endArrow=classic;html=1;rounded=0;exitX=0;exitY=1;exitDx=0;exitDy=0;entryX=1.028;entryY=0.685;entryDx=0;entryDy=0;entryPerimeter=0;" parent="WIyWlLk6GJQsqaUBKTNV-1" source="IjpmylR8UJIye0wj_KUh-0" target="WIyWlLk6GJQsqaUBKTNV-3" edge="1">
          <mxGeometry x="-0.9465" y="30" width="50" height="50" relative="1" as="geometry">
            <mxPoint x="340" y="140" as="sourcePoint" />
            <mxPoint x="250" y="130" as="targetPoint" />
            <mxPoint as="offset" />
          </mxGeometry>
        </mxCell>
        <mxCell id="IjpmylR8UJIye0wj_KUh-4" value="process_client()" style="rounded=1;whiteSpace=wrap;html=1;" parent="WIyWlLk6GJQsqaUBKTNV-1" vertex="1">
          <mxGeometry x="50" y="370" width="190" height="170" as="geometry" />
        </mxCell>
        <mxCell id="IjpmylR8UJIye0wj_KUh-5" value="Gives the function what&lt;br&gt;the client data&lt;br&gt;and client socket" style="endArrow=classic;html=1;rounded=0;entryX=0.25;entryY=0;entryDx=0;entryDy=0;" parent="WIyWlLk6GJQsqaUBKTNV-1" target="IjpmylR8UJIye0wj_KUh-4" edge="1">
          <mxGeometry x="0.0023" y="-19" width="50" height="50" relative="1" as="geometry">
            <mxPoint x="100" y="170" as="sourcePoint" />
            <mxPoint x="150" y="120" as="targetPoint" />
            <Array as="points" />
            <mxPoint as="offset" />
          </mxGeometry>
        </mxCell>
        <mxCell id="IjpmylR8UJIye0wj_KUh-6" value="Returns what the client&lt;br&gt;did and his party&#39;s code&lt;br&gt;and id" style="endArrow=classic;html=1;rounded=0;entryX=0.8;entryY=1;entryDx=0;entryDy=0;entryPerimeter=0;" parent="WIyWlLk6GJQsqaUBKTNV-1" target="WIyWlLk6GJQsqaUBKTNV-3" edge="1">
          <mxGeometry width="50" height="50" relative="1" as="geometry">
            <mxPoint x="200" y="370" as="sourcePoint" />
            <mxPoint x="250" y="320" as="targetPoint" />
          </mxGeometry>
        </mxCell>
        <mxCell id="IjpmylR8UJIye0wj_KUh-7" value="If the URI is /log&lt;br&gt;sends the data&lt;br&gt;to check in the data base" style="endArrow=classic;html=1;rounded=0;" parent="WIyWlLk6GJQsqaUBKTNV-1" target="IjpmylR8UJIye0wj_KUh-8" edge="1">
          <mxGeometry width="50" height="50" relative="1" as="geometry">
            <mxPoint x="90" y="540" as="sourcePoint" />
            <mxPoint x="90" y="730" as="targetPoint" />
          </mxGeometry>
        </mxCell>
        <mxCell id="IjpmylR8UJIye0wj_KUh-8" value="check_in_db()" style="rhombus;whiteSpace=wrap;html=1;" parent="WIyWlLk6GJQsqaUBKTNV-1" vertex="1">
          <mxGeometry x="40" y="690" width="90" height="90" as="geometry" />
        </mxCell>
        <mxCell id="IjpmylR8UJIye0wj_KUh-10" value="If indeed the client&lt;br&gt;have connected before&lt;br&gt;and his detail are in the&lt;br&gt;data base it returns approves and&lt;br&gt;new party code" style="endArrow=classic;html=1;rounded=0;entryX=0.847;entryY=1.012;entryDx=0;entryDy=0;entryPerimeter=0;" parent="WIyWlLk6GJQsqaUBKTNV-1" target="IjpmylR8UJIye0wj_KUh-4" edge="1">
          <mxGeometry x="-0.233" y="-14" width="50" height="50" relative="1" as="geometry">
            <mxPoint x="120" y="730" as="sourcePoint" />
            <mxPoint x="170" y="680" as="targetPoint" />
            <Array as="points">
              <mxPoint x="200" y="650" />
            </Array>
            <mxPoint as="offset" />
          </mxGeometry>
        </mxCell>
        <mxCell id="IjpmylR8UJIye0wj_KUh-16" value="If URI is /sign&lt;br&gt;we add the&lt;br&gt;detail to the&lt;br&gt;database" style="endArrow=classic;html=1;rounded=0;" parent="WIyWlLk6GJQsqaUBKTNV-1" target="IjpmylR8UJIye0wj_KUh-17" edge="1">
          <mxGeometry x="-0.063" y="13" width="50" height="50" relative="1" as="geometry">
            <mxPoint x="240" y="520" as="sourcePoint" />
            <mxPoint x="410" y="730" as="targetPoint" />
            <mxPoint y="-1" as="offset" />
          </mxGeometry>
        </mxCell>
        <mxCell id="IjpmylR8UJIye0wj_KUh-17" value="add_to_db()" style="rhombus;whiteSpace=wrap;html=1;" parent="WIyWlLk6GJQsqaUBKTNV-1" vertex="1">
          <mxGeometry x="370" y="690" width="80" height="80" as="geometry" />
        </mxCell>
        <mxCell id="IjpmylR8UJIye0wj_KUh-20" value="If added the client successfully&lt;br&gt;to the database returns approve and party code" style="endArrow=classic;html=1;rounded=0;entryX=1.037;entryY=0.724;entryDx=0;entryDy=0;entryPerimeter=0;" parent="WIyWlLk6GJQsqaUBKTNV-1" target="IjpmylR8UJIye0wj_KUh-4" edge="1">
          <mxGeometry width="50" height="50" relative="1" as="geometry">
            <mxPoint x="414" y="690" as="sourcePoint" />
            <mxPoint x="464" y="640" as="targetPoint" />
            <Array as="points">
              <mxPoint x="400" y="540" />
            </Array>
          </mxGeometry>
        </mxCell>
        <mxCell id="IjpmylR8UJIye0wj_KUh-21" value="generate_new_party()" style="shape=parallelogram;perimeter=parallelogramPerimeter;whiteSpace=wrap;html=1;fixedSize=1;" parent="WIyWlLk6GJQsqaUBKTNV-1" vertex="1">
          <mxGeometry x="260" y="950" width="140" height="60" as="geometry" />
        </mxCell>
        <mxCell id="IjpmylR8UJIye0wj_KUh-23" value="Return new party code" style="endArrow=classic;html=1;rounded=0;entryX=0;entryY=0.5;entryDx=0;entryDy=0;" parent="WIyWlLk6GJQsqaUBKTNV-1" target="IjpmylR8UJIye0wj_KUh-8" edge="1">
          <mxGeometry width="50" height="50" relative="1" as="geometry">
            <mxPoint x="280" y="1010" as="sourcePoint" />
            <mxPoint x="100" y="810" as="targetPoint" />
            <Array as="points">
              <mxPoint x="150" y="1040" />
              <mxPoint x="10" y="1030" />
              <mxPoint x="-60" y="920" />
            </Array>
          </mxGeometry>
        </mxCell>
        <mxCell id="IjpmylR8UJIye0wj_KUh-24" value="Returns the new party code" style="endArrow=classic;html=1;rounded=0;entryX=0.875;entryY=0.75;entryDx=0;entryDy=0;entryPerimeter=0;" parent="WIyWlLk6GJQsqaUBKTNV-1" target="IjpmylR8UJIye0wj_KUh-17" edge="1">
          <mxGeometry x="0.4266" y="-25" width="50" height="50" relative="1" as="geometry">
            <mxPoint x="385" y="1000" as="sourcePoint" />
            <mxPoint x="435" y="950" as="targetPoint" />
            <Array as="points">
              <mxPoint x="500" y="880" />
            </Array>
            <mxPoint as="offset" />
          </mxGeometry>
        </mxCell>
        <mxCell id="IjpmylR8UJIye0wj_KUh-25" value="Gives the client socket" style="endArrow=classic;html=1;rounded=0;entryX=-0.021;entryY=0.9;entryDx=0;entryDy=0;entryPerimeter=0;" parent="WIyWlLk6GJQsqaUBKTNV-1" target="IjpmylR8UJIye0wj_KUh-21" edge="1">
          <mxGeometry width="50" height="50" relative="1" as="geometry">
            <mxPoint x="40" y="740" as="sourcePoint" />
            <mxPoint x="130" y="925" as="targetPoint" />
            <Array as="points">
              <mxPoint y="950" />
            </Array>
          </mxGeometry>
        </mxCell>
        <mxCell id="IjpmylR8UJIye0wj_KUh-26" value="Gives the client socket" style="endArrow=classic;html=1;rounded=0;entryX=0.914;entryY=0.033;entryDx=0;entryDy=0;entryPerimeter=0;" parent="WIyWlLk6GJQsqaUBKTNV-1" target="IjpmylR8UJIye0wj_KUh-21" edge="1">
          <mxGeometry x="0.898" y="-27" width="50" height="50" relative="1" as="geometry">
            <mxPoint x="414" y="770" as="sourcePoint" />
            <mxPoint x="464" y="720" as="targetPoint" />
            <Array as="points">
              <mxPoint x="430" y="880" />
            </Array>
            <mxPoint x="1" as="offset" />
          </mxGeometry>
        </mxCell>
        <mxCell id="IjpmylR8UJIye0wj_KUh-28" value="If URI is /join we check if the party he wants&amp;nbsp;&lt;br&gt;to join is real and if it is we get him in that&lt;br&gt;party." style="endArrow=classic;html=1;rounded=0;entryX=0;entryY=0.824;entryDx=0;entryDy=0;entryPerimeter=0;" parent="WIyWlLk6GJQsqaUBKTNV-1" target="IjpmylR8UJIye0wj_KUh-4" edge="1">
          <mxGeometry width="50" height="50" relative="1" as="geometry">
            <mxPoint x="50" y="410" as="sourcePoint" />
            <mxPoint x="100" y="360" as="targetPoint" />
            <Array as="points">
              <mxPoint x="-70" y="400" />
              <mxPoint x="-100" y="460" />
              <mxPoint x="-90" y="510" />
            </Array>
          </mxGeometry>
        </mxCell>
        <mxCell id="IjpmylR8UJIye0wj_KUh-29" value="if URI is /start we are returning to&lt;br&gt;main() that the client wants to start" style="endArrow=classic;html=1;rounded=0;entryX=1.037;entryY=0.471;entryDx=0;entryDy=0;entryPerimeter=0;" parent="WIyWlLk6GJQsqaUBKTNV-1" target="IjpmylR8UJIye0wj_KUh-4" edge="1">
          <mxGeometry width="50" height="50" relative="1" as="geometry">
            <mxPoint x="240" y="400" as="sourcePoint" />
            <mxPoint x="290" y="350" as="targetPoint" />
            <Array as="points">
              <mxPoint x="290" y="380" />
              <mxPoint x="340" y="400" />
              <mxPoint x="300" y="440" />
            </Array>
          </mxGeometry>
        </mxCell>
        <mxCell id="IjpmylR8UJIye0wj_KUh-30" value="thread_party()" style="rounded=1;whiteSpace=wrap;html=1;" parent="WIyWlLk6GJQsqaUBKTNV-1" vertex="1">
          <mxGeometry x="550" y="210" width="220" height="210" as="geometry" />
        </mxCell>
        <mxCell id="IjpmylR8UJIye0wj_KUh-31" value="if client wants to start his party we give this function the&lt;br&gt;party object of the client" style="endArrow=classic;html=1;rounded=0;entryX=-0.005;entryY=0.157;entryDx=0;entryDy=0;entryPerimeter=0;" parent="WIyWlLk6GJQsqaUBKTNV-1" target="IjpmylR8UJIye0wj_KUh-30" edge="1">
          <mxGeometry width="50" height="50" relative="1" as="geometry">
            <mxPoint x="240" y="160" as="sourcePoint" />
            <mxPoint x="290" y="110" as="targetPoint" />
          </mxGeometry>
        </mxCell>
        <mxCell id="IjpmylR8UJIye0wj_KUh-32" value="The name of file the client&lt;br&gt;want to hear" style="endArrow=classic;html=1;rounded=0;" parent="WIyWlLk6GJQsqaUBKTNV-1" target="IjpmylR8UJIye0wj_KUh-33" edge="1">
          <mxGeometry width="50" height="50" relative="1" as="geometry">
            <mxPoint x="620" y="420" as="sourcePoint" />
            <mxPoint x="620" y="530" as="targetPoint" />
          </mxGeometry>
        </mxCell>
        <mxCell id="IjpmylR8UJIye0wj_KUh-33" value="get_song_data()" style="rhombus;whiteSpace=wrap;html=1;" parent="WIyWlLk6GJQsqaUBKTNV-1" vertex="1">
          <mxGeometry x="580" y="490" width="80" height="80" as="geometry" />
        </mxCell>
        <mxCell id="IjpmylR8UJIye0wj_KUh-34" value="sender()" style="rhombus;whiteSpace=wrap;html=1;" parent="WIyWlLk6GJQsqaUBKTNV-1" vertex="1">
          <mxGeometry x="610" y="60" width="80" height="80" as="geometry" />
        </mxCell>
        <mxCell id="IjpmylR8UJIye0wj_KUh-36" value="all the messages to send to all the party memberts" style="endArrow=classic;html=1;rounded=0;entryX=0.125;entryY=0.738;entryDx=0;entryDy=0;entryPerimeter=0;" parent="WIyWlLk6GJQsqaUBKTNV-1" target="IjpmylR8UJIye0wj_KUh-34" edge="1">
          <mxGeometry x="0.2391" y="-62" width="50" height="50" relative="1" as="geometry">
            <mxPoint x="595" y="210" as="sourcePoint" />
            <mxPoint x="645" y="160" as="targetPoint" />
            <mxPoint y="-1" as="offset" />
          </mxGeometry>
        </mxCell>
        <mxCell id="IjpmylR8UJIye0wj_KUh-37" value="The file data" style="endArrow=classic;html=1;rounded=0;entryX=0.682;entryY=1;entryDx=0;entryDy=0;entryPerimeter=0;" parent="WIyWlLk6GJQsqaUBKTNV-1" target="IjpmylR8UJIye0wj_KUh-30" edge="1">
          <mxGeometry width="50" height="50" relative="1" as="geometry">
            <mxPoint x="640" y="510" as="sourcePoint" />
            <mxPoint x="690" y="460" as="targetPoint" />
            <Array as="points">
              <mxPoint x="710" y="490" />
            </Array>
          </mxGeometry>
        </mxCell>
      </root>
    </mxGraphModel>
  </diagram>
</mxfile>
